<svg xmlns="http://www.w3.org/2000/svg" width="181.298" height="136.428" viewBox="0 0 181.298 136.428">
  <g id="Logo2" transform="translate(-869.351 -92.724)">
    <path id="Path_46" data-name="Path 46" d="M925.258,117.525l-14.216-12.954V215.747l14.216-12.954,14.215,12.954V104.571ZM932.2,188.4a6.948,6.948,0,0,1-13.9,0v-7.424a6.948,6.948,0,0,1,13.9,0Zm0-26.607a6.948,6.948,0,1,1-13.9,0v-3.257a6.948,6.948,0,1,1,13.9,0Zm0-22.44a6.948,6.948,0,0,1-13.9,0v-7.424a6.948,6.948,0,0,1,13.9,0Z" fill="#445466"/>
    <path id="Path_47" data-name="Path 47" d="M906.046,104.571a36.7,36.7,0,0,0-36.7,36.7v5a13.894,13.894,0,1,1,0,27.788v5a36.694,36.694,0,0,0,36.7,36.694h5V104.571Z" fill="#445466"/>
    <g id="Group_70" data-name="Group 70">
      <path id="Path_48" data-name="Path 48" d="M982.484,148.013a3.235,3.235,0,0,0,.611-2.124v-5.116a3.128,3.128,0,0,0-.611-2.049,2.191,2.191,0,0,0-1.771-.733,2.167,2.167,0,0,0-1.764.733,3.2,3.2,0,0,0-.618,2.09v5.075a3.224,3.224,0,0,0,.618,2.145,2.523,2.523,0,0,0,3.535-.021Z" fill="#445466"/>
      <path id="Path_49" data-name="Path 49" d="M1009.41,171.566a2.157,2.157,0,0,0-1.765.74,3.129,3.129,0,0,0-.617,2.083v5.076a3.183,3.183,0,0,0,.617,2.144,2.2,2.2,0,0,0,1.765.713,2.172,2.172,0,0,0,1.764-.733,3.2,3.2,0,0,0,.617-2.124v-5.116a3.061,3.061,0,0,0-.617-2.043A2.155,2.155,0,0,0,1009.41,171.566Z" fill="#445466"/>
      <path id="Path_50" data-name="Path 50" d="M1050.649,146.266v-5a36.7,36.7,0,0,0-36.7-36.695H939.473V215.748h74.482a36.693,36.693,0,0,0,36.694-36.694v-5a13.894,13.894,0,1,1,0-27.788Zm-79.938-.417v-4.961q0-4.8,2.619-7.478t7.383-2.68q4.8,0,7.4,2.68t2.6,7.56v4.879q0,4.845-2.619,7.505t-7.383,2.66q-4.764,0-7.383-2.681T970.711,145.849Zm4.845,43.143,30.759-57.706h8.455l-30.759,57.706Zm43.856-9.568q0,4.845-2.619,7.505t-7.383,2.66q-4.764,0-7.383-2.68t-2.619-7.485v-4.96a10.256,10.256,0,0,1,2.619-7.478q2.616-2.677,7.383-2.68,4.8,0,7.4,2.68t2.6,7.559Z" fill="#445466"/>
    </g>
    <path id="Path_51" data-name="Path 51" d="M999.408,229.152c14.711,0,26.637-9.456,26.637-21.121h0a139.186,139.186,0,0,0-53.275,0h0C972.77,219.7,984.7,229.152,999.408,229.152Z" fill="#222831"/>
    <path id="Path_52" data-name="Path 52" d="M972.77,92.724c-14.712,0-26.638,9.456-26.638,21.121h0a138.708,138.708,0,0,0,27.51,2.571,138.6,138.6,0,0,0,25.766-2.571h0C999.408,102.18,987.482,92.724,972.77,92.724Z" fill="#222831"/>
  </g>
</svg>
