<svg id="Filled" height="512" viewBox="0 0 512 512" width="512" xmlns="http://www.w3.org/2000/svg"><path d="m88 392-24-368h176l-24 368z" fill="#b1bd70"/><path d="m88 392h128a0 0 0 0 1 0 0v64a32 32 0 0 1 -32 32h-64a32 32 0 0 1 -32-32v-64a0 0 0 0 1 0 0z" fill="#fbe9d8"/><path d="m120 488h64a32 32 0 0 0 32-32h-128a32 32 0 0 0 32 32z" fill="#b1bd70"/><path d="m240 24h-176l2.087 32h171.826z" fill="#fbe9d8"/><path d="m144 424h16a16 16 0 0 1 16 16v16a0 0 0 0 1 0 0h-48a0 0 0 0 1 0 0v-16a16 16 0 0 1 16-16z" fill="#a0ab65"/><rect fill="#e09f2c" height="176" rx="32" width="272" x="176" y="312"/><path d="m200 280h224v32h-224z" fill="#f7b030"/><path d="m176 344h272v112h-272z" fill="#f7b030"/><g fill="#fbe9d8"><path d="m200.2 280s-7.718-46.667 72.81-46.667 94.99-33.333 94.99-33.333 56 20 56 80z"/><ellipse cx="312" cy="400" rx="56" ry="24"/><path d="m104 88h96v48h-96z"/></g><path d="m245.838 18.53a8 8 0 0 0 -5.838-2.53h-176a8 8 0 0 0 -7.983 8.521l23.983 367.738v63.741a40.045 40.045 0 0 0 40 40h296a40.045 40.045 0 0 0 40-40v-112a40.051 40.051 0 0 0 -24-36.65v-27.35c0-26.876-10.606-50.552-30.672-68.468a102.8 102.8 0 0 0 -30.637-19.066 7.716 7.716 0 0 0 -10 4.272c-.394.745-4.134 7.372-15.653 13.985-11.61 6.665-33.531 14.61-72.028 14.61q-22.085 0-38.416 4.49l13.389-205.3a8 8 0 0 0 -2.145-5.993zm-14.377 13.47-1.043 16h-156.836l-1.043-16zm-47.461 416v-96h256v96zm-48 0v-8a8.009 8.009 0 0 1 8-8h16a8.009 8.009 0 0 1 8 8v8zm32-30.624a23.889 23.889 0 0 0 -8-1.376h-16a24.027 24.027 0 0 0 -24 24v8h-24v-48h72zm-70.624 46.624h71.429a39.841 39.841 0 0 0 7.217 16h-56.022a24.039 24.039 0 0 1 -22.624-16zm318.624 16h-208a24.039 24.039 0 0 1 -22.624-16h253.248a24.039 24.039 0 0 1 -22.624 16zm22.624-144h-253.248a24.039 24.039 0 0 1 22.624-16h208a24.039 24.039 0 0 1 22.624 16zm-230.624-32v-16h208v16zm146.865-80.5a62.628 62.628 0 0 0 16-13.467 92.294 92.294 0 0 1 20.227 13.814c14.513 13.13 22.739 29.3 24.53 48.154h-207.184a27.866 27.866 0 0 1 6.456-13.225c9.9-11.411 30-17.442 58.116-17.442 34.89-.001 62.426-6.001 81.855-17.834zm-152.4 25.186a43.461 43.461 0 0 0 -10.393 30.268 8.024 8.024 0 0 0 -.072 1.046v27.35a40.051 40.051 0 0 0 -24 36.65v40h-72.5l-20.875-320h154.75l-11.235 172.263a53.419 53.419 0 0 0 -15.671 12.422z"/><path d="m354.749 375.676c-11.549-4.949-26.732-7.676-42.749-7.676s-31.2 2.727-42.749 7.676c-18.49 7.924-21.251 18.641-21.251 24.324s2.761 16.4 21.251 24.324c11.549 4.949 26.732 7.676 42.749 7.676s31.2-2.727 42.749-7.676c18.49-7.924 21.251-18.641 21.251-24.324s-2.761-16.4-21.251-24.324zm-42.749 40.324c-29.776 0-48-10.359-48-16s18.224-16 48-16 48 10.359 48 16-18.224 16-48 16z"/><path d="m200 80h-96a8 8 0 0 0 -8 8v48a8 8 0 0 0 8 8h96a8 8 0 0 0 8-8v-48a8 8 0 0 0 -8-8zm-8 48h-80v-32h80z"/><path d="m184 160h-64a8 8 0 0 0 0 16h64a8 8 0 0 0 0-16z"/></svg>